<svg id="spirit" enable-background="new 0 0 300 300" fill="#ffffff" height="512" viewBox="0 0 300 300" width="512" xmlns="http://www.w3.org/2000/svg"><path d="m273.168 119.533c-.227-.621-5.6-14.929-17.244-19.123l5.21-2.59c1.978-.983 2.785-3.385 1.801-5.362-.984-1.979-3.383-2.784-5.363-1.802l-7.264 3.611c1.71-2.604 3.055-5.587 3.566-8.909 0 0 0 0 0-.001 1.941-12.626-9.015-24.238-9.482-24.727-1.251-1.307-3.225-1.61-4.814-.74-.592.325-14.531 8.11-16.473 20.736-1.548 10.069 5.1 19.486 8.096 23.139l-3.218 1.6c-2.057 1.023-4.007 2.196-5.848 3.498.446-4.32.124-9.151-2.062-13.549-5.687-11.44-21.332-14.621-21.996-14.751-1.777-.344-3.566.541-4.361 2.169-.297.606-7.206 15-1.52 26.438 3.826 7.696 12.154 11.651 17.4 13.457-1.431 2.491-2.627 5.141-3.562 7.926-.115.343-.213.688-.319 1.032l-.019-.013c-17.481-11.654-40.954-9.331-55.811 5.526l-3.5 3.5c-1.605 1.606-3.435 2.986-5.408 4.115-20.407-20.943-45.908-66.651-46.166-67.116-.562-1.011-1.532-1.729-2.663-1.97-1.128-.239-2.309.019-3.234.712-12.077 9.058-16.268 19.852-17.556 27.928-5.238-6.463-8.445-11.006-8.538-11.137-.791-1.129-2.111-1.78-3.484-1.7-1.376.071-2.62.847-3.289 2.052-14.464 26.034-10.601 47.598-4.813 61.102 2.615 6.102 5.822 11.114 8.698 14.908-14.831-3.821-26.495-14.393-26.634-14.521-1.284-1.183-3.186-1.398-4.7-.53-1.515.868-2.292 2.617-1.92 4.323 4.306 19.749 14.47 36.856 30.208 50.846 22.983 20.43 45.344 30.991 65.338 30.991 3.465 0 6.861-.317 10.174-.956 18.372-3.538 33.897-17.037 44.898-39.039 8.617-17.234 19.886-36.934 27.019-49.11.7 4.251 2.037 8.42 4.009 12.387.699 1.406 2.114 2.221 3.585 2.221.598 0 1.206-.135 1.778-.419 1.978-.983 2.785-3.385 1.801-5.362-4.239-8.527-4.904-18.195-1.872-27.223 2.758-8.209 8.278-14.985 15.667-19.335 2.396 4.786 7.763 13.331 16.559 16.083 2.106.659 4.239.933 6.331.933 10.02-.001 19.082-6.278 19.539-6.6 1.483-1.042 2.08-2.948 1.456-4.648zm-42.155-37.69c.912-5.93 6.294-10.687 9.667-13.135 2.478 3.36 6.194 9.543 5.288 15.434-.913 5.936-6.303 10.695-9.675 13.143-2.482-3.351-6.192-9.509-5.28-15.442zm-31.651 23.767c-2.671-5.373-1.011-12.361.334-16.306 3.962 1.319 10.561 4.232 13.214 9.57 2.673 5.377 1.009 12.372-.338 16.314-3.958-1.306-10.538-4.203-13.21-9.578zm-109.171-19.943c6.585 11.458 25.542 43.388 42.614 62.041-5.382.992-10.919.279-15.627-2.086-13.919-6.992-27.945-20.75-38.267-32.43.005-.146.023-.29.012-.439-.451-6.083.551-17.211 11.268-27.086zm79.952 111.362c-9.986 19.973-23.194 31.669-39.255 34.762-19.896 3.831-43.649-5.904-68.686-28.158-11.384-10.12-19.586-21.994-24.479-35.412 7.82 4.975 19.542 10.631 32.411 10.631 1.674 0 3.171-1.042 3.751-2.612.581-1.57.123-3.335-1.148-4.425-.085-.073-8.624-7.486-14.15-20.381-6.643-15.501-6.106-31.761 1.58-48.414 8.725 11.48 30.719 38.348 53.419 49.751 7.641 3.839 16.864 4.427 25.304 1.614 4.93-1.644 9.478-4.454 13.152-8.129l3.5-3.5c12.169-12.169 31.396-14.073 45.717-4.526l1.153.769c-5.455 9.137-21.066 35.626-32.269 58.03zm78.089-74.815c-5.727-1.791-9.623-7.826-11.537-11.527 3.694-1.945 10.364-4.692 16.053-2.914 5.727 1.791 9.622 7.825 11.537 11.526-3.694 1.946-10.363 4.692-16.053 2.915z"/><path d="m178.683 142.015c-2.051 0-3.714 1.663-3.714 3.714s1.663 3.714 3.714 3.714 3.714-1.663 3.714-3.714-1.663-3.714-3.714-3.714z"/></svg>